<?xml version="1.0" standalone="no"?>
<!DOCTYPE svg PUBLIC "-//W3C//DTD SVG 20010904//EN" "http://www.w3.org/TR/2001/REC-SVG-20010904/DTD/svg10.dtd">
<svg version="1.0" xmlns="http://www.w3.org/2000/svg" width="46" height="41" viewBox="0 0 46 41" fill="none" preserveAspectRatio="xMidYMid meet">
	<g transform="translate(0.000000,500.000000) scale(0.100000,-0.100000)" fill="#000000" stroke="none">
		<path d="M4140 4132 c-38 -21 -145 -145 -300 -349 -166 -218 -208 -233 -363
-130 -335 225 -733 333 -1095 299 -227 -22 -390 -67 -587 -162 -462 -224 -800
-643 -904 -1122 -19 -89 -41 -276 -41 -355 0 -38 12 -41 62 -17 29 13 37 27
62 97 82 241 246 608 321 721 40 60 64 80 89 70 22 -8 31 -44 15 -55 -12 -8
-11 -12 3 -23 10 -7 15 -16 11 -19 -3 -4 1 -7 11 -7 10 0 14 -5 10 -12 -4 -6
-3 -8 4 -5 5 4 8 17 4 29 -3 14 -2 19 7 14 6 -4 9 -12 6 -17 -4 -5 -2 -9 4 -9
6 0 7 -7 4 -17 -4 -11 -3 -14 5 -9 7 4 12 2 12 -4 0 -6 4 -8 10 -5 5 3 10 3
10 0 0 -22 -79 -170 -150 -280 -100 -155 -208 -381 -191 -398 8 -8 34 -6 98 6
135 26 251 37 450 44 l181 6 36 77 c23 47 55 152 85 273 38 152 60 220 101
306 31 63 57 108 63 104 6 -4 8 0 4 11 -5 13 -1 19 13 23 11 3 17 9 14 14 -7
13 5 49 17 49 6 0 7 -5 3 -12 -4 -7 -3 -8 4 -4 6 4 9 13 5 21 -3 8 0 15 7 15
6 0 8 5 5 10 -7 11 17 40 33 40 6 0 13 7 16 16 4 10 2 13 -6 8 -23 -14 57 88
84 107 47 34 64 26 98 -46 30 -65 39 -119 20 -130 -5 -3 -10 -15 -10 -25 0
-11 -6 -34 -14 -52 -8 -18 -42 -98 -76 -178 -35 -80 -96 -217 -137 -305 -82
-175 -89 -191 -127 -282 -30 -73 -32 -83 -10 -83 9 0 12 -5 8 -12 -4 -7 -3 -8
4 -4 6 4 26 0 43 -9 31 -17 31 -17 10 -31 -12 -9 -30 -13 -41 -9 -22 7 -28 26
-7 22 6 -2 2 1 -10 7 -13 5 -23 13 -23 18 0 4 -4 8 -10 8 -5 0 -10 -7 -10 -15
0 -8 7 -15 15 -15 8 0 14 -5 13 -11 -2 -5 18 -18 43 -28 26 -10 57 -25 70 -34
28 -20 36 -52 11 -42 -47 20 -137 45 -162 45 -26 0 -31 -7 -78 -122 -116 -283
-208 -549 -267 -768 -32 -120 -32 -127 -3 -108 76 50 233 117 408 175 41 13
88 31 105 38 60 28 170 55 261 67 l94 11 9 36 c4 20 14 61 21 91 33 143 171
531 302 850 16 41 34 84 38 95 5 11 24 55 44 97 20 42 38 91 39 107 1 18 8 31
16 31 8 0 11 6 7 16 -3 8 -2 12 4 9 6 -3 10 -1 10 4 0 6 -4 11 -10 11 -5 0
-10 7 -10 15 0 8 7 15 16 15 11 0 14 6 9 20 -5 16 -3 19 12 13 16 -6 16 -5 4
11 -13 15 -12 18 7 23 12 3 22 10 22 15 0 5 -6 6 -12 2 -11 -7 8 23 55 83 7 9
14 9 33 -4 13 -8 24 -19 24 -25 0 -5 9 -19 21 -31 15 -16 19 -30 14 -52 -3
-16 -8 -48 -10 -69 -3 -22 -11 -47 -19 -55 -7 -9 -16 -29 -20 -45 -4 -15 -14
-35 -21 -43 -8 -8 -15 -25 -15 -39 0 -14 -7 -27 -15 -30 -8 -4 -15 -17 -15
-29 0 -13 -5 -25 -11 -27 -5 -2 -11 -10 -13 -18 -8 -39 -19 -70 -25 -70 -13 0
-31 -49 -25 -65 4 -8 -1 -17 -9 -21 -9 -3 -13 -12 -10 -21 4 -10 2 -14 -4 -10
-7 5 -9 -1 -5 -15 3 -14 1 -19 -6 -14 -8 4 -10 2 -6 -7 3 -8 0 -18 -5 -22 -6
-3 -9 -11 -6 -16 4 -5 1 -9 -4 -9 -6 0 -11 -11 -11 -25 0 -14 -5 -24 -11 -23
-13 3 -31 -46 -30 -80 0 -13 -4 -20 -9 -17 -6 3 -10 -3 -10 -14 0 -11 -7 -27
-16 -35 -14 -14 -14 -16 0 -16 31 0 225 186 410 394 32 36 64 66 71 66 18 0
24 -22 11 -43 -13 -20 4 -54 24 -49 9 2 10 -4 6 -20 -4 -13 -8 -27 -9 -33 -6
-21 -58 -95 -67 -95 -6 0 -10 -5 -10 -11 0 -17 -51 -79 -63 -76 -7 1 -11 -3
-10 -9 1 -6 -12 -24 -29 -40 -17 -16 -27 -22 -23 -14 8 13 7 13 -8 1 -10 -8
-15 -16 -12 -19 8 -8 -26 -42 -42 -42 -8 0 -11 -5 -7 -12 5 -8 2 -9 -9 -5 -9
3 -19 1 -23 -5 -5 -7 -2 -8 7 -3 8 5 5 -1 -5 -13 -21 -25 -30 -28 -21 -9 3 6
-2 2 -11 -10 -9 -13 -25 -23 -34 -23 -10 0 -20 -4 -22 -8 -1 -4 -20 -18 -40
-31 -21 -12 -38 -27 -38 -32 0 -6 -5 -7 -10 -4 -6 3 -13 -1 -16 -9 -3 -9 -10
-13 -15 -10 -5 3 -23 -4 -39 -16 -29 -21 -29 -22 -15 -50 8 -16 39 -53 68 -83
53 -54 223 -187 239 -187 5 0 18 -9 30 -20 12 -11 32 -20 45 -20 16 0 21 -4
16 -16 -5 -13 -7 -13 -14 -2 -7 10 -9 8 -9 -6 0 -12 -5 -16 -15 -12 -8 3 -15
2 -15 -3 0 -5 51 -12 113 -15 129 -8 354 -39 475 -65 l84 -18 22 36 c59 93
127 254 161 383 l25 93 -100 -102 c-55 -56 -113 -109 -130 -118 -16 -8 -30
-20 -30 -25 0 -15 33 -12 58 6 22 15 23 15 20 -2 -2 -11 -20 -28 -40 -38 -21
-11 -36 -21 -34 -24 2 -2 15 2 28 9 20 11 22 11 10 -3 -28 -34 -102 -23 -102
15 0 6 -10 21 -22 34 -28 30 -35 116 -15 201 14 63 12 72 -13 49 -7 -6 1 6 18
28 18 22 32 49 32 60 0 23 -7 16 -215 -215 -77 -85 -155 -169 -174 -186 -29
-27 -32 -33 -22 -52 21 -40 -3 -22 -31 22 -45 70 -38 138 35 336 46 125 163
370 177 370 20 0 23 -33 7 -78 -10 -25 -15 -47 -13 -50 3 -2 8 7 12 22 6 26
24 36 24 14 0 -6 7 -3 15 8 30 40 16 -17 -24 -95 -21 -42 -36 -82 -33 -90 2
-8 0 -11 -6 -7 -5 3 -13 -6 -16 -19 -4 -14 -11 -23 -16 -20 -5 3 -7 -1 -4 -9
3 -8 -1 -28 -10 -43 -26 -49 -86 -210 -86 -233 0 -24 44 20 282 280 63 69 121
125 129 125 9 0 14 -11 15 -30 0 -17 4 -37 8 -44 4 -7 5 -29 2 -49 l-6 -37 20
40 c11 22 18 31 14 20 -20 -66 -31 -120 -27 -131 2 -6 -2 -27 -9 -45 -15 -37
-10 -84 9 -84 21 0 144 98 210 167 l61 64 8 80 c27 261 -9 528 -105 794 -50
139 -38 222 41 270 18 11 100 50 183 86 245 109 392 182 414 205 32 35 51 115
41 170 -32 167 -208 411 -345 479 -68 33 -166 39 -215 12z m-1404 -357 c-4
-14 -2 -25 4 -25 5 0 10 -7 10 -16 0 -8 -4 -13 -9 -9 -10 5 -15 -6 -26 -62 -4
-18 -11 -33 -16 -33 -10 0 -6 116 4 127 4 3 7 15 7 25 0 10 7 18 16 18 12 0
15 -6 10 -25z m-256 -51 c0 -23 3 -50 6 -59 5 -12 2 -16 -12 -14 -10 1 -28 -2
-38 -6 -31 -13 -70 15 -74 52 -6 56 11 73 68 71 l50 -2 0 -42z m147 35 c8 -7
13 -33 13 -65 0 -43 -3 -54 -16 -54 -14 0 -16 8 -11 41 7 51 0 69 -23 69 -21
0 -30 -19 -30 -66 0 -24 -5 -34 -15 -34 -16 0 -19 22 -9 81 6 33 9 36 42 37
19 1 41 -3 49 -9z m-307 -8 c0 -5 -10 -11 -21 -14 -20 -5 -21 -11 -16 -56 5
-41 3 -51 -8 -51 -8 0 -15 6 -15 14 0 7 -3 35 -7 61 -5 42 -4 48 10 42 10 -4
17 -2 17 3 0 6 9 10 20 10 11 0 20 -4 20 -9z m1985 -16 c38 -19 55 -51 55
-106 0 -49 -19 -88 -60 -122 -42 -36 -90 -43 -146 -22 -73 28 -93 90 -53 172
38 78 129 113 204 78z m-2105 -45 c11 -45 10 -53 -5 -70 -40 -44 -89 -12 -102
64 -8 51 13 46 28 -6 12 -46 24 -59 46 -51 15 6 17 41 4 76 -9 24 -6 37 10 37
4 0 12 -23 19 -50z m910 40 c0 -6 -9 -28 -20 -50 -24 -48 -24 -50 -3 -50 24 0
53 -30 53 -55 0 -50 -74 -99 -95 -64 -4 5 -18 14 -31 20 l-25 9 51 100 c46 90
70 120 70 90z m-249 -10 c12 -7 19 -21 19 -40 0 -33 -7 -35 -58 -21 -24 7 -32
7 -32 -3 0 -23 26 -37 55 -30 21 5 27 4 23 -7 -2 -8 -21 -15 -40 -17 -28 -2
-40 2 -52 20 -21 30 -20 50 5 82 22 28 48 33 80 16z m-811 -76 c23 -52 25 -77
8 -72 -7 3 -19 -1 -26 -9 -21 -21 -69 -16 -86 9 -32 45 -11 101 37 101 15 0
27 3 27 8 0 25 23 4 40 -37z m-195 -3 c4 -13 12 -18 22 -14 12 5 14 1 9 -14
-4 -13 2 -35 15 -58 15 -25 19 -39 11 -47 -7 -7 -17 3 -33 33 -12 24 -25 46
-29 49 -13 8 -23 70 -11 70 5 0 12 -9 16 -19z m1115 9 c8 -5 12 -12 8 -15 -9
-9 -48 4 -48 16 0 12 21 11 40 -1z m-1189 -99 c-27 -20 -15 -37 20 -26 39 13
67 -38 35 -65 -8 -6 -25 -10 -38 -8 -23 4 -22 5 5 16 38 16 34 30 -9 34 -44 4
-65 28 -45 52 8 9 23 16 35 16 21 0 20 -1 -3 -19z m1484 -28 l33 -27 -30 -45
c-17 -25 -32 -47 -34 -49 -1 -2 -21 8 -43 22 -33 21 -41 32 -41 56 0 35 31 70
61 70 11 0 35 -12 54 -27z m-1556 -40 l24 -16 -39 -33 c-32 -28 -36 -34 -21
-40 24 -9 48 2 54 26 6 24 23 27 23 3 0 -52 -75 -71 -109 -27 -28 36 -26 58 5
83 32 25 33 25 63 4z m1691 -74 c0 -12 -6 -11 -31 4 -18 11 -24 8 -54 -26 -46
-53 -55 -28 -10 28 l37 45 29 -21 c16 -11 29 -25 29 -30z m-1831 -25 c-10 -12
-6 -21 19 -53 43 -54 27 -60 -24 -10 l-43 42 27 29 c27 28 46 21 21 -8z m2032
-86 c37 -20 92 -59 114 -82 35 -35 78 -96 73 -102 -3 -2 -13 7 -22 22 -10 14
-20 23 -23 20 -4 -3 1 -14 9 -23 18 -21 76 -120 85 -146 3 -10 11 -16 18 -13
9 3 21 -19 35 -65 13 -38 20 -72 18 -75 -3 -3 -14 22 -24 55 -21 73 -31 73
-14 1 7 -29 20 -56 31 -63 11 -7 19 -15 19 -20 0 -4 -4 -5 -10 -2 -13 8 -13
-25 0 -45 8 -13 10 -12 11 5 1 13 4 9 8 -10 4 -16 3 -33 -2 -36 -4 -3 -3 -26
2 -50 6 -24 11 -59 11 -76 0 -19 5 -33 12 -33 8 0 9 -3 1 -11 -6 -6 -7 -25 -3
-50 5 -28 4 -39 -5 -39 -13 0 -15 11 -17 82 -1 26 -5 45 -9 42 -4 -2 -5 12 -2
32 4 21 2 35 -3 32 -5 -4 -9 14 -10 39 -1 25 -6 48 -12 52 -6 3 -10 15 -8 26
2 11 -1 23 -5 26 -5 3 -10 17 -11 32 -1 15 -6 27 -10 27 -4 0 -8 4 -8 9 0 5
-5 22 -12 38 -6 15 -12 30 -13 33 -1 3 -7 23 -13 46 -7 22 -21 49 -32 59 -11
10 -20 26 -20 37 0 10 -4 18 -10 18 -5 0 -9 5 -7 11 1 6 -8 18 -20 26 -21 14
-23 14 -23 -1 0 -9 3 -16 8 -16 13 0 112 -202 118 -240 1 -8 5 -23 9 -32 4
-10 5 -18 3 -18 -2 0 -23 37 -46 83 -24 45 -72 116 -107 157 -36 41 -65 82
-65 90 0 13 1 13 10 0 13 -20 13 -4 -1 21 -6 12 -17 18 -25 15 -8 -3 -25 3
-36 14 -12 11 -17 20 -11 20 7 0 19 -7 27 -16 9 -8 16 -11 16 -6 0 10 -56 62
-67 62 -10 0 -43 32 -43 42 0 13 85 10 111 -4z m-962 -625 c-4 -23 3 -32 19
-26 15 6 15 4 4 -9 -7 -9 -12 -33 -10 -55 2 -29 8 -39 23 -41 35 -7 85 -34 85
-46 0 -17 -58 -58 -71 -51 -16 11 -39 -15 -39 -45 0 -15 -8 -38 -18 -50 l-18
-22 -34 32 c-28 26 -40 31 -72 28 -21 -2 -38 0 -38 5 0 4 -4 6 -9 3 -5 -3 -15
2 -22 11 -8 10 -9 14 -2 10 7 -4 14 0 18 12 3 10 14 26 25 36 22 20 27 39 8
33 -7 -3 -17 0 -23 6 -15 17 -45 73 -45 85 0 18 42 13 78 -9 39 -24 60 -27 42
-5 -7 8 -15 13 -19 10 -4 -2 -20 5 -37 16 l-29 20 45 -4 c41 -4 49 -1 80 29
31 31 62 45 59 27z m45 -75 c6 -31 2 -47 -10 -35 -9 9 -13 67 -4 67 4 0 10
-14 14 -32z m1273 -5 c-3 -10 -5 -4 -5 12 0 17 2 24 5 18 2 -7 2 -21 0 -30z
m-1501 -145 c-18 -26 -22 -17 -5 14 6 11 13 17 16 15 3 -3 -2 -16 -11 -29z
m234 -28 c0 -16 -41 -99 -52 -106 -19 -12 -17 3 2 24 11 12 20 30 20 41 0 11
3 26 6 35 7 18 24 22 24 6z m-286 -136 c9 -3 13 -10 10 -15 -3 -5 7 -9 23 -8
25 0 26 1 8 9 -19 8 -19 9 3 9 26 1 102 -39 102 -54 0 -6 18 -29 40 -53 35
-37 54 -72 32 -58 -4 2 -6 -11 -4 -30 2 -18 8 -31 13 -28 5 3 9 0 9 -5 0 -10
-14 -15 -32 -12 -10 1 -10 -21 1 -37 4 -8 -1 -31 -15 -60 -25 -50 -30 -77 -14
-67 6 3 7 -1 3 -10 -4 -11 -8 -13 -13 -5 -5 8 -11 6 -20 -4 -7 -9 -16 -14 -20
-11 -4 2 -17 -6 -29 -19 -19 -20 -20 -27 -11 -52 11 -27 9 -31 -27 -62 -101
-88 -157 -89 -228 -7 -70 83 -77 119 -51 259 17 86 53 168 111 246 57 78 72
88 109 74z m233 -296 c-3 -7 -5 -2 -5 12 0 14 2 19 5 13 2 -7 2 -19 0 -25z
m1042 -66 c-30 -32 -56 -57 -58 -55 -6 4 91 113 102 113 6 0 -14 -26 -44 -58z
m325 -94 c-31 -38 -53 -58 -61 -58 -4 0 11 18 32 40 42 43 60 54 29 18z
m-1457 -12 c-3 -6 -10 -10 -16 -8 -7 1 -10 -1 -7 -6 3 -5 -2 -18 -10 -28 -14
-17 -15 -17 -10 -1 3 9 1 17 -5 17 -5 0 -2 11 7 24 15 24 49 26 41 2z m1031
-4 c-55 -64 -82 -92 -91 -92 -5 0 18 27 50 60 61 64 80 78 41 32z m-119 -129
c-44 -50 -74 -68 -63 -38 4 8 12 15 18 15 7 0 23 11 36 25 32 34 40 32 9 -2z" />
		<path d="M2392 3738 c-17 -17 -15 -42 7 -62 23 -21 49 -12 57 20 11 42 -34 72
-64 42z" />
		<path d="M3047 3589 c-17 -24 -13 -45 13 -59 27 -14 52 10 48 45 -4 38 -39 46
-61 14z" />
		<path d="M2805 3700 c-6 -10 44 -35 53 -26 8 8 -19 36 -34 36 -7 0 -16 -5 -19
-10z" />
		<path d="M1966 3638 c-13 -19 -14 -25 -2 -43 7 -11 24 -20 37 -20 19 0 25 6
27 30 3 19 -2 33 -14 42 -24 18 -30 17 -48 -9z" />
		<path d="M3190 3510 c-24 -24 -25 -34 -4 -54 18 -19 20 -19 45 -6 21 12 25 50
7 68 -17 17 -25 15 -48 -8z" />
		<path d="M1650 3455 c-24 -29 4 -38 30 -10 23 24 23 25 3 25 -11 0 -26 -7 -33
-15z" />
		<path d="M3510 3296 c0 -2 9 -6 20 -9 11 -3 18 -1 14 4 -5 9 -34 13 -34 5z" />
		<path d="M3700 3201 c0 -6 4 -13 10 -16 6 -3 7 1 4 9 -7 18 -14 21 -14 7z" />
		<path d="M3660 3180 c0 -5 5 -10 11 -10 5 0 7 5 4 10 -3 6 -8 10 -11 10 -2 0
-4 -4 -4 -10z" />
		<path d="M2475 2230 c3 -5 8 -10 11 -10 2 0 4 5 4 10 0 6 -5 10 -11 10 -5 0
-7 -4 -4 -10z" />
		<path d="M2497 2193 c-4 -3 -7 -14 -7 -24 0 -20 -45 -91 -55 -87 -10 5 -59
-89 -99 -189 -44 -112 -45 -118 -6 -98 17 9 35 13 41 10 5 -4 8 -1 7 6 -2 7 6
17 17 23 11 5 35 27 54 50 18 23 36 40 40 39 3 -2 6 0 6 5 1 4 15 37 33 73 36
76 44 156 16 183 -16 17 -36 21 -47 9z" />
		<path d="M2581 2080 c0 -33 1 -34 10 -11 6 16 6 28 -1 35 -7 7 -10 -1 -9 -24z" />
		<path d="M2574 2018 c-5 -13 -8 -26 -9 -30 0 -3 -3 -10 -7 -14 -5 -4 -8 -14
-8 -22 0 -11 3 -12 13 -3 8 6 16 9 18 7 2 -2 5 16 6 40 2 49 -2 55 -13 22z" />
		<path d="M2236 1925 c-3 -9 -6 -22 -5 -28 0 -7 5 -1 10 12 5 13 8 26 5 28 -2
2 -6 -3 -10 -12z" />
		<path d="M2540 1923 c7 -16 8 -29 0 -42 -20 -38 -9 -35 15 4 14 22 25 45 25
50 0 6 -5 2 -11 -8 -10 -18 -11 -18 -25 0 -14 17 -14 16 -4 -4z" />
		<path d="M2490 1869 c-19 -24 -39 -47 -45 -51 -6 -5 -6 -11 2 -19 9 -9 13 -6
19 15 3 14 12 26 20 26 17 0 47 45 42 61 -2 7 -19 -8 -38 -32z" />
		<path d="M2444 1868 l-19 -23 23 19 c12 11 22 21 22 23 0 8 -8 2 -26 -19z" />
		<path d="M2446 1764 c-5 -14 -4 -15 9 -4 17 14 19 20 6 20 -5 0 -12 -7 -15
-16z" />
		<path d="M2455 1740 c-3 -6 1 -7 9 -4 18 7 21 14 7 14 -6 0 -13 -4 -16 -10z" />
		<path d="M4721 3396 c-30 -32 -109 -73 -381 -196 -226 -103 -255 -119 -249
-139 3 -7 23 -1 53 15 27 15 119 58 205 96 256 115 364 173 385 208 23 40 16
47 -13 16z" />
		<path d="M2325 3359 c-4 -6 -5 -12 -2 -15 2 -3 7 2 10 11 7 17 1 20 -8 4z" />
		<path d="M2265 3280 c-10 -11 -13 -20 -7 -20 6 0 16 9 22 20 6 11 9 20 7 20
-2 0 -12 -9 -22 -20z" />
		<path d="M2221 3205 c-12 -24 -26 -47 -32 -50 -5 -4 -9 -11 -9 -18 0 -16 14 1
49 61 17 28 27 52 23 52 -5 0 -19 -20 -31 -45z" />
		<path d="M2112 2999 c-51 -108 -87 -207 -79 -215 2 -3 10 9 17 26 7 16 16 30
20 30 5 0 6 9 3 20 -3 11 -1 20 4 20 5 0 10 11 11 25 1 14 20 61 42 106 22 45
38 84 36 87 -3 2 -27 -42 -54 -99z" />
		<path d="M3136 3045 c-3 -8 -1 -15 4 -15 6 0 10 7 10 15 0 8 -2 15 -4 15 -2 0
-6 -7 -10 -15z" />
		<path d="M2016 2748 c-10 -38 -6 -45 9 -18 17 29 18 40 6 40 -5 0 -11 -10 -15
-22z" />
		<path d="M2096 2734 c-4 -9 -4 -19 -1 -22 2 -3 7 3 11 12 4 9 4 19 1 22 -2 3
-7 -3 -11 -12z" />
		<path d="M3046 2675 c-3 -8 -1 -15 4 -15 6 0 10 7 10 15 0 8 -2 15 -4 15 -2 0
-6 -7 -10 -15z" />
		<path d="M2946 2552 c-3 -6 -1 -12 6 -14 12 -4 -19 -68 -34 -68 -4 0 -8 -7 -8
-15 0 -8 7 -15 15 -15 8 0 15 6 15 14 0 7 9 16 20 19 11 3 20 11 20 19 0 10
-2 10 -10 -2 -14 -22 -23 -5 -10 19 11 22 -1 63 -14 43z" />
		<path d="M2995 2550 c-3 -5 -1 -10 4 -10 6 0 11 5 11 10 0 6 -2 10 -4 10 -3 0
-8 -4 -11 -10z" />
		<path d="M1110 2542 c0 -7 -9 -21 -20 -32 -11 -11 -15 -20 -9 -20 7 0 6 -8 -3
-22 -8 -13 -17 -32 -20 -43 -3 -11 -13 -37 -22 -57 -19 -43 -6 -52 14 -10 8
15 14 29 15 32 1 3 4 12 7 20 38 101 48 134 43 138 -3 3 -5 0 -5 -6z" />
		<path d="M1991 2504 c0 -11 3 -14 6 -6 3 7 2 16 -1 19 -3 4 -6 -2 -5 -13z" />
		<path d="M2957 2453 c-4 -3 -7 -11 -7 -17 0 -6 5 -5 12 2 6 6 9 14 7 17 -3 3
-9 2 -12 -2z" />
		<path d="M1020 2430 c0 -5 5 -10 11 -10 5 0 7 5 4 10 -3 6 -8 10 -11 10 -2 0
-4 -4 -4 -10z" />
		<path d="M2911 2418 c-1 -20 34 -25 45 -6 4 7 3 8 -4 4 -7 -4 -12 -1 -12 6 0
10 -2 10 -9 -1 -7 -11 -9 -11 -14 0 -4 10 -6 9 -6 -3z" />
		<path d="M1762 2382 c-30 -2 -50 -7 -47 -13 4 -5 -4 -9 -17 -9 -18 0 -20 2 -8
10 11 7 6 10 -20 10 -26 0 -31 -3 -20 -10 12 -8 11 -10 -5 -10 -12 0 -26 5
-32 11 -8 8 -17 8 -31 0 -10 -6 -23 -7 -27 -3 -5 4 -5 1 -1 -5 5 -9 0 -13 -16
-13 -18 0 -20 2 -8 10 8 5 11 10 7 10 -4 0 -18 -6 -30 -14 -20 -12 -49 -18
-166 -33 -19 -2 -41 -8 -50 -12 -10 -6 -20 -4 -29 7 -7 10 -11 11 -7 5 4 -8
-1 -13 -14 -13 -26 0 -71 -21 -71 -33 0 -5 14 -7 33 -3 17 4 47 10 65 13 17 3
32 10 32 15 0 5 4 6 10 3 5 -3 36 -1 67 4 32 6 70 12 86 13 15 1 27 5 27 8 0
3 20 4 45 2 25 -2 45 0 45 4 0 5 33 10 72 10 159 3 203 8 206 24 3 16 -6 17
-96 12z" />
		<path d="M2927 2383 c-4 -3 -7 -11 -7 -17 0 -6 5 -5 12 2 6 6 9 14 7 17 -3 3
-9 2 -12 -2z" />
		<path d="M1125 2370 c3 -5 8 -10 11 -10 2 0 4 5 4 10 0 6 -5 10 -11 10 -5 0
-7 -4 -4 -10z" />
		<path d="M2890 2361 c13 -25 13 -34 -1 -25 -8 4 -9 0 -4 -15 4 -12 2 -21 -4
-21 -6 0 -7 -7 -4 -17 4 -10 2 -14 -4 -10 -7 5 -9 0 -6 -13 4 -14 1 -20 -8
-18 -9 2 -14 -5 -13 -19 0 -13 -3 -23 -8 -23 -4 0 -8 6 -8 13 0 8 -3 7 -10 -3
-6 -9 -5 -19 2 -28 9 -10 9 -15 -1 -21 -6 -4 -13 -18 -14 -29 -1 -12 -5 -22
-9 -22 -4 0 -8 -4 -8 -10 0 -5 8 -7 18 -4 9 3 5 -2 -10 -11 -25 -14 -38 -35
-22 -35 19 0 43 25 59 62 10 24 24 57 31 75 8 17 14 42 14 56 0 13 7 30 15 37
8 7 15 21 15 31 0 10 5 21 11 24 7 5 4 14 -7 26 -22 25 -38 24 -24 0z m-25
-131 c3 -5 1 -10 -4 -10 -6 0 -11 5 -11 10 0 6 2 10 4 10 3 0 8 -4 11 -10z" />
		<path d="M1372 2353 c-12 -2 -20 -8 -17 -13 3 -5 19 -4 36 0 57 17 45 25 -19
13z" />
		<path d="M1122 2278 c-18 -18 -15 -27 8 -21 11 3 20 12 20 19 0 17 -12 18 -28
2z" />
		<path d="M1515 2246 c-60 -13 -162 -38 -225 -56 -63 -17 -129 -34 -147 -36
-72 -12 -87 -20 -95 -50 -11 -41 -90 -264 -83 -234 3 14 8 42 11 63 4 20 11
40 15 43 5 3 9 12 9 20 0 36 -19 -2 -35 -68 -10 -40 -22 -78 -27 -85 -5 -7 -6
-18 -2 -24 5 -9 10 -7 16 7 6 13 6 10 3 -11 -11 -61 121 -328 235 -479 70 -93
172 -203 246 -268 39 -33 42 -40 46 -97 2 -33 2 -61 0 -61 -15 0 -147 118
-238 212 -109 114 -110 104 -2 -28 72 -90 209 -218 268 -252 25 -14 55 -35 68
-46 23 -20 23 -20 -3 36 -41 89 -59 204 -51 333 8 144 38 282 131 605 43 146
78 272 79 281 1 8 13 32 25 53 13 21 26 57 29 81 4 38 1 45 -23 61 -41 27
-125 27 -250 0z" />
		<path d="M874 2235 c-4 -8 -11 -15 -17 -15 -6 0 -21 -10 -34 -22 -13 -12 -23
-16 -23 -10 0 13 -91 -23 -102 -41 -6 -9 -12 -9 -27 0 -17 11 -23 9 -40 -14
-12 -14 -21 -20 -21 -14 0 7 -4 10 -9 6 -5 -3 -12 -1 -16 5 -3 5 -12 10 -18
10 -7 0 -6 -4 3 -10 8 -5 10 -10 4 -10 -5 0 -19 -7 -30 -16 -36 -29 86 -7 195
35 55 22 114 42 131 46 33 7 63 45 35 45 -8 0 -14 -5 -12 -12 1 -6 -7 -13 -18
-15 -11 -1 -14 0 -7 3 6 3 12 12 12 19 0 7 6 16 13 18 9 4 9 6 -1 6 -7 1 -15
-6 -18 -14z" />
		<path d="M1866 2215 c-3 -8 -1 -15 4 -15 6 0 10 7 10 15 0 8 -2 15 -4 15 -2 0
-6 -7 -10 -15z" />
		<path d="M3088 2207 c-21 -16 -25 -26 -18 -37 8 -13 10 -12 10 3 0 11 10 27
23 38 12 10 20 18 17 19 -3 0 -17 -10 -32 -23z" />
		<path d="M3489 2143 c-58 -128 -127 -324 -134 -382 -4 -34 7 -12 44 89 27 74
67 179 90 232 45 107 45 108 31 108 -5 0 -19 -21 -31 -47z" />
		<path d="M3002 2139 c-23 -17 -42 -35 -42 -40 0 -5 -3 -8 -7 -7 -22 4 -43 -17
-43 -43 0 -16 -5 -29 -12 -29 -6 0 -9 -2 -6 -5 13 -13 35 8 31 29 -4 19 3 27
41 45 25 13 44 26 43 31 -1 4 2 8 6 9 11 1 40 31 35 36 -2 3 -23 -9 -46 -26z" />
		<path d="M945 2099 c-9 -14 -2 -20 14 -10 8 6 9 11 3 15 -6 3 -14 1 -17 -5z" />
		<path d="M3000 2089 c0 -5 5 -7 10 -4 6 3 10 8 10 11 0 2 -4 4 -10 4 -5 0 -10
-5 -10 -11z" />
		<path d="M850 2080 c-8 -5 -24 -11 -34 -15 -10 -3 -17 -7 -14 -10 7 -7 78 17
78 27 0 10 -10 9 -30 -2z" />
		<path d="M460 2040 c-8 -5 -12 -11 -10 -14 3 -2 14 2 24 10 22 15 10 19 -14 4z" />
		<path d="M921 2036 c-6 -8 -11 -18 -10 -22 3 -17 -13 -54 -23 -54 -6 0 -5 -6
1 -14 9 -11 9 -20 2 -34 -6 -11 -7 -22 -4 -26 3 -3 1 -6 -6 -6 -7 0 -11 -6 -8
-14 3 -8 -1 -43 -10 -78 -8 -34 -16 -88 -18 -120 -1 -31 -5 -60 -9 -66 -9 -16
18 -62 37 -62 10 0 15 5 12 10 -4 6 -11 7 -17 4 -13 -8 1 158 19 226 3 14 6
28 5 31 0 3 5 27 13 53 8 25 11 54 8 63 -5 12 -3 14 7 8 10 -6 12 -4 7 8 -3 9
-2 19 2 22 8 4 14 85 7 85 -2 0 -9 -6 -15 -14z" />
		<path d="M1795 2040 c-3 -5 -2 -10 4 -10 5 0 13 5 16 10 3 6 2 10 -4 10 -5 0
-13 -4 -16 -10z" />
		<path d="M3811 2027 c-5 -13 -12 -46 -15 -73 l-5 -49 14 50 c7 28 17 60 20 73
10 29 -3 29 -14 -1z" />
		<path d="M845 2027 c-11 -8 -33 -13 -48 -13 -16 1 -30 -2 -33 -6 -7 -11 39
-49 53 -44 9 4 10 -1 3 -19 -6 -16 -6 -25 0 -25 6 0 10 -8 10 -17 0 -15 2 -16
10 -3 5 8 10 28 10 43 0 16 5 37 11 48 5 11 9 27 7 35 -3 12 -6 13 -23 1z" />
		<path d="M3447 1938 c-9 -23 -15 -43 -13 -45 2 -2 11 15 20 38 9 23 15 43 13
45 -2 2 -11 -15 -20 -38z" />
		<path d="M2707 1874 c-3 -3 -3 -12 -1 -19 3 -7 -2 -15 -10 -18 -9 -4 -16 -15
-16 -26 0 -11 -5 -23 -11 -26 -6 -4 -8 -13 -5 -20 2 -7 0 -17 -6 -23 -5 -5
-11 -28 -11 -50 -1 -22 -5 -38 -9 -35 -5 2 -8 0 -8 -6 0 -5 6 -12 13 -14 7 -4
6 -6 -4 -6 -17 -1 -29 -21 -29 -47 0 -22 34 -17 49 7 10 18 15 19 22 8 5 -8 9
-9 9 -4 0 6 -5 16 -11 22 -12 12 -1 66 12 57 5 -3 6 1 3 9 -3 8 7 48 22 91 24
71 26 106 6 106 -5 0 -11 -3 -15 -6z" />
		<path d="M831 1854 c0 -11 3 -14 6 -6 3 7 2 16 -1 19 -3 4 -6 -2 -5 -13z" />
		<path d="M3802 1850 c0 -14 2 -19 5 -12 2 6 2 18 0 25 -3 6 -5 1 -5 -13z" />
		<path d="M2822 1829 c2 -6 7 -10 11 -10 4 1 14 1 22 1 8 0 15 5 15 10 0 6 -12
10 -26 10 -14 0 -24 -5 -22 -11z" />
		<path d="M821 1794 c0 -11 3 -14 6 -6 3 7 2 16 -1 19 -3 4 -6 -2 -5 -13z" />
		<path d="M2852 1793 c2 -10 10 -17 17 -15 7 1 10 -2 7 -7 -4 -5 -1 -13 5 -16
18 -12 23 4 9 30 -15 29 -43 34 -38 8z" />
		<path d="M916 1785 c-3 -8 -1 -15 4 -15 6 0 10 7 10 15 0 8 -2 15 -4 15 -2 0
-6 -7 -10 -15z" />
		<path d="M2736 1773 c-6 -14 -5 -15 5 -6 7 7 10 15 7 18 -3 3 -9 -2 -12 -12z" />
		<path d="M2765 1743 c-4 -21 -14 -51 -23 -68 -8 -16 -16 -38 -17 -48 -1 -11
-8 -23 -16 -28 -31 -19 13 -24 166 -19 108 3 154 8 140 14 -44 21 -133 87
-180 135 -27 28 -52 51 -56 51 -4 0 -10 -17 -14 -37z" />
		<path d="M3377 1746 c-4 -10 -5 -21 -2 -24 9 -9 17 6 13 25 -3 17 -4 17 -11
-1z" />
		<path d="M2720 1731 c-12 -24 -13 -34 -1 -27 9 6 22 46 15 46 -2 0 -8 -9 -14
-19z" />
		<path d="M1691 1733 c-1 -6 -4 -20 -7 -30 -5 -17 -5 -17 6 0 6 10 9 23 6 30
-3 9 -5 9 -5 0z" />
		<path d="M2910 1730 c0 -11 40 -44 40 -34 0 5 5 1 11 -9 6 -9 14 -15 19 -12 4
3 10 -2 13 -9 6 -16 47 -18 47 -3 0 5 -5 7 -11 5 -6 -2 -28 13 -50 33 -35 32
-69 47 -69 29z" />
		<path d="M3810 1730 c0 -15 21 -23 32 -12 6 6 2 11 -11 15 -12 3 -21 1 -21 -3z" />
		<path d="M3065 1653 c3 -7 2 -13 -4 -13 -18 0 -1 -27 25 -39 22 -10 24 -9 15
7 -11 20 -45 62 -36 45z" />
		<path d="M3170 1651 c0 -5 7 -12 16 -15 14 -5 15 -4 4 9 -14 17 -20 19 -20 6z" />
		<path d="M901 1638 c-1 -10 -5 -18 -10 -18 -11 0 -7 -44 8 -83 14 -35 14 -40
1 -32 -5 3 -10 -3 -10 -13 0 -25 44 -54 85 -56 l33 -1 -46 90 c-26 49 -50 99
-53 110 -6 17 -7 17 -8 3z m62 -183 c-3 -9 -8 -14 -10 -11 -3 3 -2 9 2 15 9
16 15 13 8 -4z" />
		<path d="M3115 1620 c3 -5 8 -10 11 -10 2 0 4 5 4 10 0 6 -5 10 -11 10 -5 0
-7 -4 -4 -10z" />
		<path d="M3155 1590 c3 -5 13 -10 21 -10 8 0 12 5 9 10 -3 6 -13 10 -21 10 -8
0 -12 -4 -9 -10z" />
		<path d="M4046 1532 c-37 -77 -122 -202 -194 -287 -50 -59 -63 -70 -88 -68
-16 1 -21 -1 -11 -4 9 -2 17 -8 17 -12 0 -5 -34 -40 -75 -80 -358 -340 -892
-527 -1377 -483 -128 12 -300 45 -383 75 l-39 14 29 14 c33 16 50 47 19 34
-11 -4 -39 -9 -64 -11 -25 -1 -34 0 -20 3 28 6 80 40 80 52 0 5 -20 4 -45 -1
-24 -5 -56 -8 -71 -6 l-27 3 26 31 c71 84 319 203 509 245 196 43 613 62 811
38 127 -15 128 -6 2 19 -138 26 -251 39 -435 48 -179 9 -167 13 180 46 173 16
535 13 699 -6 74 -9 136 -14 138 -12 4 4 -164 40 -285 61 -143 25 -343 38
-592 39 -267 1 -402 -12 -535 -50 -136 -39 -366 -126 -490 -185 -47 -23 -140
-101 -159 -134 -11 -19 -25 -34 -30 -32 -6 2 -26 44 -45 93 -29 72 -37 84 -39
61 -4 -30 32 -130 57 -159 8 -10 19 -18 26 -18 14 0 7 -61 -9 -73 -7 -6 -6 -7
4 -4 16 4 44 -39 35 -54 -20 -32 321 -158 525 -194 484 -86 1022 68 1425 407
180 151 349 373 439 576 35 80 29 91 -8 14z m-826 -289 c-83 -6 -360 -7 -360
-1 0 11 80 13 245 9 83 -3 134 -6 115 -8z m-385 -3 c15 -6 7 -9 -30 -9 -130
-2 -388 -43 -482 -78 -23 -8 -47 -13 -55 -10 -8 3 -4 6 8 6 11 1 24 5 30 10 5
4 32 14 59 21 28 7 54 16 60 19 5 3 16 6 25 7 8 1 56 7 105 13 50 6 126 15
170 20 44 5 82 9 85 9 3 0 14 -3 25 -8z m-12 -117 c-34 -2 -93 -2 -130 0 -37
2 -9 3 62 3 72 0 102 -1 68 -3z m-265 -10 c-15 -2 -42 -2 -60 0 -18 2 -6 4 27
4 33 0 48 -2 33 -4z m-115 -10 c-13 -2 -33 -2 -45 0 -13 2 -3 4 22 4 25 0 35
-2 23 -4z m-80 -10 c-7 -2 -19 -2 -25 0 -7 3 -2 5 12 5 14 0 19 -2 13 -5z" />
		<path d="M1611 1414 c0 -11 3 -14 6 -6 3 7 2 16 -1 19 -3 4 -6 -2 -5 -13z" />
		<path d="M2555 1424 c-79 -22 -155 -47 -155 -51 0 -3 18 -3 40 1 22 3 91 9
153 11 61 3 130 8 152 10 25 3 35 2 25 -4 -8 -4 -69 -11 -135 -15 -247 -14
-295 -23 -465 -91 -139 -55 -235 -105 -281 -145 l-24 -22 25 14 c14 8 108 47
209 87 182 72 299 102 436 115 33 3 107 10 165 15 206 20 535 13 730 -15 82
-12 37 4 -86 30 -67 14 -177 32 -245 41 -126 15 -508 29 -544 19z m363 -31
c-10 -2 -28 -2 -40 0 -13 2 -5 4 17 4 22 1 32 -1 23 -4z m145 -10 c-13 -2 -33
-2 -45 0 -13 2 -3 4 22 4 25 0 35 -2 23 -4z" />
		<path d="M2245 1400 c-41 -10 -109 -42 -75 -35 48 11 105 29 115 37 11 9 3 9
-40 -2z" />
		<path d="M2041 1324 c-13 -13 -22 -26 -20 -29 6 -5 59 39 59 49 0 11 -15 4
-39 -20z" />
		<path d="M2598 1323 c12 -2 30 -2 40 0 9 3 -1 5 -23 4 -22 0 -30 -2 -17 -4z" />
		<path d="M3488 1323 c7 -3 16 -2 19 1 4 3 -2 6 -13 5 -11 0 -14 -3 -6 -6z" />
		<path d="M3550 1306 c22 -8 34 -19 34 -30 -2 -19 2 -20 20 -4 11 11 7 16 -23
30 -20 10 -43 17 -51 17 -8 0 1 -6 20 -13z" />
		<path d="M1930 1285 c0 -7 -8 -19 -17 -25 -15 -9 -14 -10 6 -4 17 4 21 3 16
-6 -6 -9 -3 -9 14 -1 23 13 29 26 7 18 -10 -4 -12 0 -9 14 3 10 0 19 -6 19 -6
0 -11 -7 -11 -15z" />
		<path d="M1110 1266 c0 -2 8 -10 18 -17 15 -13 16 -12 3 4 -13 16 -21 21 -21
13z" />
		<path d="M3640 1261 c0 -6 4 -13 10 -16 6 -3 7 1 4 9 -7 18 -14 21 -14 7z" />
		<path d="M1863 1224 c-8 -21 -1 -24 26 -10 l23 13 -21 6 c-14 3 -24 0 -28 -9z" />
		<path d="M1777 1163 c-32 -25 -56 -47 -54 -50 8 -7 127 79 121 88 -6 11 1 15
-67 -38z" />
		<path d="M1725 1190 c-8 -13 5 -13 25 0 13 8 13 10 -2 10 -9 0 -20 -4 -23 -10z" />
		<path d="M2868 1183 c7 -3 16 -2 19 1 4 3 -2 6 -13 5 -11 0 -14 -3 -6 -6z" />
		<path d="M2778 1173 c12 -2 30 -2 40 0 9 3 -1 5 -23 4 -22 0 -30 -2 -17 -4z" />
		<path d="M3268 1073 c7 -3 16 -2 19 1 4 3 -2 6 -13 5 -11 0 -14 -3 -6 -6z" />
		<path d="M3308 1063 c7 -3 16 -2 19 1 4 3 -2 6 -13 5 -11 0 -14 -3 -6 -6z" />
		<path d="M3378 1028 c2 -11 8 -16 11 -11 3 4 10 11 14 14 4 4 -1 9 -11 11 -15
4 -18 1 -14 -14z" />
		<path d="M3426 1007 c3 -10 9 -15 12 -12 3 3 0 11 -7 18 -10 9 -11 8 -5 -6z" />
	</g>
</svg>
